<svg id="Capa_1" enable-background="new 0 0 512 512" height="512" viewBox="0 0 512 512" width="512" xmlns="http://www.w3.org/2000/svg"><g><path d="m444.5 412.5v62h30c16.569 0 30-13.431 30-30z" fill="#7d8fe5"/><path d="m86.076 412.5-78.576 32c0 16.569 13.431 30 30 30h188.5l30-30 30 30h158.5c16.569 0 30-13.431 30-30v-32z" fill="#95b0ed"/><path d="m196 444.5 30 30h60l30-30-60-32z" fill="#666ddc"/><path d="m444.5 37.5h-30v390l30-30c16.5 0 30-13.5 30-30v-300c0-16.5-13.5-30-30-30z" fill="#666ddc"/><path d="m444.5 67.5c0-16.5-13.5-30-30-30h-347c-16.5 0-30 13.5-30 30v300c0 16.5 13.5 30 30 30l188.5 30 158.5-30c16.5 0 30-13.5 30-30l-188.5-138.5z" fill="#7d8fe5"/><path d="m504.5 444.5-21.154-33.141c-5.511-8.634-15.045-13.859-25.288-13.859h-29.614l46.056 47z" fill="#95b0ed"/><path d="m428.058 397.5h-374.117c-10.242 0-19.777 5.225-25.288 13.859l-21.153 33.141h467l-21.154-33.141c-5.511-8.634-15.045-13.859-25.288-13.859z" fill="#acd2f6"/><path d="m414.5 67.5-158.5 161.5 158.5 138.5h30v-300z" fill="#c4f3ff"/><path d="m67.5 67.5h347v300h-347z" fill="#fff"/><path d="m142.5 252.5v70h60l30-70z" fill="#ffd06a"/><path d="m202.5 182.5v140h60l30-140z" fill="#ff7647"/><path d="m262.5 112.5h60v210h-60z" fill="#ff336d"/><path d="m322.5 330c4.143 0 7.5-3.358 7.5-7.5v-210c0-4.142-3.357-7.5-7.5-7.5h-60c-4.143 0-7.5 3.358-7.5 7.5v62.5h-52.5c-4.143 0-7.5 3.358-7.5 7.5v62.5h-52.5c-4.143 0-7.5 3.358-7.5 7.5v70c0 4.142 3.357 7.5 7.5 7.5zm-52.5-210h45v195h-45zm-15 70v125h-45v-125zm-105 70h45v55h-45z"/><path d="m369.5 120c4.143 0 7.5-3.358 7.5-7.5s-3.357-7.5-7.5-7.5h-17c-4.143 0-7.5 3.358-7.5 7.5v210c0 4.142 3.357 7.5 7.5 7.5h17c4.143 0 7.5-3.358 7.5-7.5s-3.357-7.5-7.5-7.5h-9.5v-55h9.5c4.143 0 7.5-3.358 7.5-7.5s-3.357-7.5-7.5-7.5h-9.5v-55h9.5c4.143 0 7.5-3.358 7.5-7.5s-3.357-7.5-7.5-7.5h-9.5v-55z"/><path d="m510.822 440.465-21.154-33.141c-4.266-6.682-10.391-11.697-17.472-14.57 6.086-6.669 9.804-15.535 9.804-25.254v-300c0-20.678-16.822-37.5-37.5-37.5h-377c-20.678 0-37.5 16.822-37.5 37.5v300c0 9.719 3.718 18.585 9.804 25.254-7.081 2.873-13.206 7.888-17.472 14.57l-21.154 33.141c-.769 1.205-1.178 2.605-1.178 4.035 0 20.678 16.822 37.5 37.5 37.5h437c20.678 0 37.5-16.822 37.5-37.5 0-1.43-.409-2.83-1.178-4.035zm-465.822-372.965c0-12.407 10.094-22.5 22.5-22.5h377c12.406 0 22.5 10.093 22.5 22.5v300c0 12.407-10.094 22.5-22.5 22.5h-377c-12.406 0-22.5-10.093-22.5-22.5zm-10.023 347.894c4.154-6.508 11.244-10.394 18.964-10.394h404.117c7.721 0 14.811 3.886 18.965 10.394l13.792 21.606h-469.63zm262.916 36.606-15 15h-53.786l-15-15zm-281.585 0h176.585l15 15h-170.393c-9.775 0-18.094-6.274-21.192-15zm458.192 15h-170.393l15-15h176.585c-3.098 8.726-11.417 15-21.192 15z"/><path d="m67.5 375h377c4.143 0 7.5-3.358 7.5-7.5v-300c0-4.142-3.357-7.5-7.5-7.5h-377c-4.143 0-7.5 3.358-7.5 7.5v225c0 4.142 3.357 7.5 7.5 7.5s7.5-3.358 7.5-7.5v-217.5h362v285h-362v-37.5c0-4.142-3.357-7.5-7.5-7.5s-7.5 3.358-7.5 7.5v45c0 4.142 3.357 7.5 7.5 7.5z"/></g></svg>